<svg width="214" height="53" viewBox="0 0 214 53" fill="none" xmlns="http://www.w3.org/2000/svg">
<path d="M23.9069 27.9236C24.0361 27.923 24.1653 27.9224 24.2984 27.9218C24.7243 27.92 25.1503 27.9192 25.5762 27.9185C25.8739 27.9178 26.1716 27.9171 26.4693 27.9164C27.0933 27.9152 27.7173 27.9145 28.3413 27.9141C29.1373 27.9134 29.9332 27.9105 30.7291 27.9071C31.3443 27.9048 31.9594 27.9042 32.5746 27.904C32.8678 27.9037 33.161 27.9027 33.4542 27.9011C37.84 27.8791 37.84 27.8791 39.4971 29.4732C40.134 30.1324 40.7146 30.8413 41.2934 31.5501C41.7091 32.0503 42.14 32.5369 42.5707 33.0245C42.9524 33.4571 43.3312 33.8917 43.7053 34.3308C43.87 34.5239 44.0357 34.716 44.2017 34.9081C44.4032 35.1434 44.6016 35.3814 44.7962 35.6223C44.8858 35.7293 44.9754 35.8363 45.0678 35.9466C45.1433 36.0398 45.2188 36.133 45.2965 36.229C46.3369 37.0408 47.7695 36.8846 49.0217 36.8853C50.6856 36.9104 52.0274 37.2836 53.2785 38.3942C54.0894 39.2392 54.6257 40.3375 54.6394 41.5076C54.641 41.6247 54.6425 41.7418 54.6441 41.8625C54.6455 42.0513 54.6455 42.0513 54.6469 42.244C54.6478 42.3743 54.6488 42.5047 54.6498 42.639C54.6515 42.9149 54.6528 43.1907 54.6538 43.4666C54.6559 43.8869 54.6612 44.307 54.6666 44.7273C54.6678 44.9957 54.6689 45.2641 54.6697 45.5325C54.6718 45.6574 54.6739 45.7823 54.6761 45.911C54.6735 46.7999 54.5269 47.4406 53.9139 48.1275C53.8449 48.1811 53.7758 48.2347 53.7047 48.2899C53.6356 48.3453 53.5666 48.4007 53.4954 48.4579C53.124 48.7102 52.8839 48.8455 52.4263 48.8455C52.4217 48.722 52.4172 48.5986 52.4125 48.4715C52.3163 46.312 51.7629 44.4814 50.1129 42.9591C48.4117 41.5268 46.4254 41.2418 44.2688 41.3974C42.6889 41.6766 41.2563 42.4389 40.2509 43.6799C39.0798 45.3637 38.8006 46.8736 38.6681 48.9656C31.1948 48.9656 23.7216 48.9656 16.0219 48.9656C15.9817 48.3313 15.9415 47.697 15.9001 47.0435C15.5359 45.211 14.681 43.5743 13.0998 42.4786C11.3206 41.434 9.53437 40.9981 7.49908 41.4725C5.73647 41.9236 4.31607 42.9163 3.30285 44.4218C2.70154 45.5133 2.38428 46.6813 2.31693 47.9145C2.31167 48.004 2.30642 48.0935 2.301 48.1857C2.28814 48.4056 2.27585 48.6255 2.26366 48.8455C1.34896 48.6887 0.872368 48.2308 0.339858 47.5123C0.0904897 47.122 0.0554067 46.7929 0.0486116 46.3429C0.0466559 46.225 0.0447002 46.107 0.0426852 45.9854C0.0372384 45.4429 0.0322671 44.9004 0.0294687 44.3578C0.0274609 44.073 0.0241496 43.7881 0.0194811 43.5033C0.0127556 43.0905 0.01014 42.6779 0.00836389 42.2651C0.00560381 42.1396 0.00284372 42.0142 0 41.885C0.0039649 40.498 0.546836 39.2643 1.53314 38.2741C2.87431 37.0978 4.41444 36.8814 6.15408 36.8963C6.3239 36.8957 6.49372 36.8949 6.66353 36.8938C7.19572 36.8908 7.72786 36.8914 8.26004 36.8926C8.8795 36.894 9.49888 36.8938 10.1183 36.8897C10.3636 36.8888 10.6089 36.8909 10.8541 36.8929C11.8866 36.8873 12.6702 36.7646 13.5031 36.1413C13.5709 36.0696 13.6387 35.9979 13.7085 35.924C13.7884 35.8398 13.8683 35.7555 13.9506 35.6688C14.3038 35.2682 14.6439 34.8584 14.9808 34.4445C15.3372 34.0098 15.7101 33.5896 16.0827 33.1686C16.5374 32.6542 16.9867 32.1374 17.422 31.6069C17.6045 31.3865 17.7872 31.1663 17.9699 30.9462C18.0295 30.8736 18.0892 30.801 18.1506 30.7263C19.6497 28.9117 19.6497 28.9117 20.7703 28.4234C20.8566 28.3849 20.9429 28.3463 21.0318 28.3066C21.9675 27.9264 22.913 27.9247 23.9069 27.9236ZM19.498 32.3732C19.1416 32.8078 18.7687 33.228 18.3961 33.6491C17.8361 34.2825 17.2895 34.9236 16.7538 35.5772C16.447 35.9458 16.1279 36.3025 15.8045 36.657C15.6436 36.8099 15.6436 36.8099 15.6566 36.9526C19.8352 36.9526 24.0138 36.9526 28.319 36.9526C28.319 34.6534 28.319 32.3541 28.319 29.9851C27.4024 29.9752 26.4858 29.9653 25.5415 29.9551C25.2549 29.9507 24.9684 29.9463 24.6731 29.9418C24.4418 29.9404 24.2105 29.9392 23.9791 29.9382C23.8624 29.9357 23.7457 29.9333 23.6255 29.9307C21.6112 29.9297 20.6872 30.9121 19.498 32.3732ZM30.3888 29.9851C30.3888 32.2844 30.3888 34.5837 30.3888 36.9526C34.5674 36.9526 38.746 36.9526 43.0512 36.9526C42.589 36.3446 42.1321 35.759 41.6282 35.1882C41.4996 35.0414 41.371 34.8945 41.2425 34.7476C41.1784 34.6745 41.1143 34.6013 41.0483 34.5259C40.7599 34.1955 40.4749 33.8623 40.19 33.5289C39.7091 32.9675 39.2275 32.4066 38.7442 31.8471C38.6848 31.778 38.6254 31.7088 38.5642 31.6376C37.8505 30.8133 37.2393 30.1675 36.1112 29.9851C35.9133 29.9753 35.715 29.971 35.5168 29.9715C35.4007 29.9715 35.2846 29.9715 35.165 29.9715C34.9843 29.9725 34.9843 29.9725 34.8 29.9734C34.6881 29.9735 34.5763 29.9736 34.461 29.9738C34.0447 29.9744 33.6283 29.9761 33.212 29.9776C32.2803 29.9801 31.3487 29.9826 30.3888 29.9851Z" fill="#FFB300"/>
<path d="M22.2465 10.6818C22.4058 10.8274 22.563 10.9752 22.7183 11.1248C24.4232 12.4871 26.3136 12.8121 28.4408 12.6865C30.0642 12.4709 31.5499 11.661 32.7021 10.5241C33.7228 10.4395 34.6808 10.9635 35.4644 11.5603C36.3781 12.3893 37.0092 13.5583 37.1237 14.7772C37.143 15.2446 37.1471 15.7099 37.1462 16.1777C37.1496 16.3383 37.153 16.4989 37.1566 16.6594C37.1585 17.5605 37.122 18.2542 36.4765 18.9332C35.9141 19.3528 35.4098 19.4285 34.7178 19.4306C34.5831 19.4313 34.4484 19.432 34.3097 19.4327C34.1625 19.4328 34.0153 19.4329 33.8636 19.4331C33.6305 19.434 33.6305 19.434 33.3926 19.4349C32.9664 19.4365 32.5403 19.4372 32.1141 19.4378C31.8477 19.4381 31.5812 19.4386 31.3148 19.4392C30.4805 19.4408 29.6462 19.442 28.812 19.4424C27.8501 19.443 26.8882 19.4451 25.9262 19.4485C25.1819 19.4511 24.4377 19.4524 23.6934 19.4525C23.2492 19.4526 22.805 19.4533 22.3608 19.4555C21.865 19.4578 21.3693 19.4573 20.8736 19.4565C20.7271 19.4576 20.5807 19.4588 20.4298 19.4599C19.4831 19.4552 18.8501 19.3895 18.1145 18.7605C17.4944 18.0438 17.5593 17.3849 17.5595 16.4688C17.559 16.2264 17.5546 15.9843 17.55 15.742C17.5451 14.1283 17.9655 12.933 19.0657 11.7254C19.8094 11.0596 21.2808 9.96336 22.2465 10.6818Z" fill="#FFB300"/>
<path d="M40.7379 19.1735C40.9652 19.3659 40.9652 19.3659 41.2097 19.6089C42.5904 20.8549 44.4081 21.4239 46.2596 21.3776C48.0773 21.2067 49.54 20.5471 50.7964 19.2528C51.087 19.0533 51.087 19.0533 51.4546 19.0674C52.556 19.3893 53.4815 20.0745 54.079 21.0472C54.6176 22.0811 54.647 22.9276 54.6559 24.0838C54.6594 24.236 54.663 24.3882 54.6666 24.545C54.6763 25.9399 54.6763 25.9399 54.1308 26.5014C53.5227 26.9639 53.0801 27.1163 52.3251 27.1189C52.207 27.1196 52.0889 27.1203 51.9672 27.121C51.8384 27.1211 51.7097 27.1212 51.577 27.1214C51.3726 27.1223 51.3726 27.1223 51.1641 27.1232C50.7129 27.1249 50.2617 27.1257 49.8105 27.1264C49.4968 27.1271 49.1832 27.1278 48.8696 27.1285C48.2958 27.1296 47.7219 27.1303 47.1481 27.1307C46.3052 27.1313 45.4623 27.1334 44.6194 27.1368C43.8879 27.1398 43.1564 27.1407 42.425 27.1409C42.1145 27.1412 41.804 27.1422 41.4935 27.1438C41.0587 27.1458 40.624 27.1456 40.1892 27.1448C39.9975 27.1465 39.9975 27.1465 39.8019 27.1482C39.0277 27.1439 38.2258 27.119 37.6263 26.5672C36.9611 25.8018 37.0547 25.1382 37.0472 24.1663C37.0437 24.0181 37.0402 23.8698 37.0365 23.717C37.0263 22.2449 37.3356 21.2208 38.3789 20.1542C38.9838 19.6104 39.8867 18.8675 40.7379 19.1735Z" fill="#FFB300"/>
<path d="M3.72471 19.1735C3.95205 19.3659 3.95205 19.3659 4.19651 19.6089C5.57718 20.8549 7.39488 21.4239 9.24644 21.3776C11.0641 21.2067 12.5268 20.5471 13.7832 19.2528C14.0738 19.0533 14.0738 19.0533 14.4414 19.0674C15.5428 19.3893 16.4684 20.0745 17.0658 21.0472C17.6044 22.0811 17.6338 22.9276 17.6427 24.0838C17.6462 24.236 17.6498 24.3882 17.6534 24.545C17.6631 25.9399 17.6631 25.9399 17.1176 26.5014C16.5095 26.9639 16.0669 27.1163 15.3119 27.1189C15.1938 27.1196 15.0757 27.1203 14.954 27.121C14.8253 27.1211 14.6965 27.1212 14.5638 27.1214C14.3594 27.1223 14.3594 27.1223 14.1509 27.1232C13.6997 27.1249 13.2485 27.1257 12.7973 27.1264C12.4837 27.1271 12.17 27.1278 11.8564 27.1285C11.2826 27.1296 10.7088 27.1303 10.1349 27.1307C9.29201 27.1313 8.44912 27.1334 7.60621 27.1368C6.87473 27.1398 6.14326 27.1407 5.41178 27.1409C5.1013 27.1412 4.79083 27.1422 4.48035 27.1438C4.04555 27.1458 3.6108 27.1456 3.17599 27.1448C2.98429 27.1465 2.98429 27.1465 2.78872 27.1482C2.01449 27.1439 1.21263 27.119 0.613117 26.5672C-0.0521005 25.8018 0.0415498 25.1382 0.0340462 24.1663C0.0305149 24.0181 0.0269835 23.8698 0.0233452 23.717C0.0130875 22.2449 0.322426 21.2208 1.36573 20.1542C1.97059 19.6104 2.87349 18.8675 3.72471 19.1735Z" fill="#FFB300"/>
<path d="M30.541 0.936298C31.588 1.71729 32.2477 2.58257 32.7021 3.79688C32.7321 3.87694 32.7621 3.957 32.793 4.03949C33.2139 5.40013 32.9465 6.85276 32.3825 8.12905C31.6327 9.49903 30.381 10.4306 28.9049 10.9141C27.2922 11.3406 25.7832 11.0591 24.3301 10.2904C22.9445 9.42302 22.1647 8.18342 21.798 6.6326C21.5287 5.06402 21.8919 3.58738 22.7645 2.26054C24.567 -0.165066 28.0103 -0.690473 30.541 0.936298Z" fill="#FFB300"/>
<path d="M48.6671 10.419C49.8488 11.2957 50.6273 12.327 50.9181 13.7803C51.12 15.2712 50.78 16.6372 49.8694 17.852C49.0704 18.7996 48.0654 19.4442 46.8256 19.654C45.3209 19.78 43.8776 19.6492 42.6707 18.6643C41.4288 17.513 40.7561 16.3812 40.6998 14.6836C40.7337 13.2749 41.2635 12.0505 42.2446 11.0272C43.9845 9.4307 46.6545 9.12225 48.6671 10.419Z" fill="#FFB300"/>
<path d="M11.3172 10.1985C12.6276 11.0098 13.4407 12.062 13.8759 13.5424C14.1128 14.9911 13.8769 16.3413 13.0589 17.5817C12.2453 18.6671 11.1752 19.4234 9.81241 19.654C8.36009 19.7756 7.0271 19.6612 5.81736 18.783C5.64399 18.6367 5.47387 18.4866 5.30751 18.3326C5.19098 18.225 5.19098 18.225 5.07209 18.1153C4.07626 17.0989 3.67182 15.7418 3.69094 14.3495C3.83284 12.914 4.50569 11.6976 5.55292 10.7123C7.13564 9.47962 9.54399 9.24259 11.3172 10.1985Z" fill="#FFB300"/>
<path d="M9.12754 43.0267C9.22851 43.0276 9.32947 43.0285 9.4335 43.0294C10.9049 43.0683 11.8614 43.6255 12.94 44.5658C13.9482 45.6951 14.2761 46.9212 14.2379 48.4175C14.0794 50.0194 13.3902 51.0887 12.1795 52.1176C11.7117 52.4506 11.2136 52.6442 10.6647 52.8097C10.5926 52.8327 10.5206 52.8556 10.4464 52.8792C9.07487 53.1378 7.56217 53.0006 6.3624 52.2781C6.11959 52.1057 5.89555 51.9253 5.67277 51.7286C5.56479 51.6344 5.45681 51.5403 5.34556 51.4433C4.31083 50.2844 3.99078 49.0467 4.0486 47.5198C4.15876 46.2518 4.66684 45.2069 5.55102 44.2805C6.62384 43.4265 7.75509 43.0092 9.12754 43.0267Z" fill="#FFB300"/>
<path d="M48.7432 43.9877C49.7366 44.7424 50.4092 45.815 50.6 47.0435C50.7249 48.5278 50.598 49.9536 49.596 51.1429C48.8366 51.9439 48.1425 52.486 47.0691 52.8097C46.9971 52.8327 46.925 52.8556 46.8508 52.8792C45.4741 53.1388 43.9974 52.9872 42.7797 52.295C41.6314 51.5082 40.8743 50.4992 40.5458 49.1589C40.3079 47.7072 40.5329 46.2941 41.2934 45.0238C43.0506 42.654 46.3942 42.4624 48.7432 43.9877Z" fill="#FFB300"/>
<path d="M33.7979 1.75468C37.9637 2.79814 41.8386 4.74082 44.9993 7.64103C45.0395 7.72031 45.0796 7.7996 45.121 7.88129C44.8121 7.98589 44.5028 8.08811 44.1927 8.18912C44.1059 8.21877 44.0191 8.24843 43.9297 8.27898C43.3918 8.45181 42.9996 8.53598 42.4425 8.3618C42.1604 8.17363 42.1604 8.17363 41.8869 7.93384C40.0422 6.41704 37.6221 5.14082 35.3193 4.46742C34.9755 4.35435 34.709 4.25599 34.5205 3.93945C34.4273 3.69397 34.3544 3.4491 34.2849 3.19623C34.1581 2.91288 34.0257 2.63302 33.8916 2.35298C33.7979 2.11507 33.7979 2.11507 33.7979 1.75468Z" fill="#FFB300"/>
<path d="M20.7703 1.75468C20.9292 2.22529 20.811 2.37389 20.6105 2.82083C20.5557 2.9444 20.5009 3.06798 20.4445 3.1953C20.3913 3.31453 20.3381 3.43377 20.2832 3.55662C20.2493 3.71295 20.2493 3.71295 20.2148 3.87243C19.9156 4.35931 19.3855 4.45783 18.8602 4.6453C16.5195 5.53838 14.1096 6.66234 12.2375 8.35007C11.7828 8.6068 11.3068 8.37058 10.8292 8.24496C10.6795 8.20175 10.5298 8.15855 10.3755 8.11404C10.2239 8.07052 10.0723 8.02701 9.91609 7.98218C9.80151 7.94888 9.68694 7.91559 9.5689 7.88129C10.0255 7.29834 10.5185 6.85972 11.1137 6.41721C11.2038 6.34982 11.2939 6.28243 11.3868 6.21299C12.3618 5.4966 13.3862 4.87508 14.4391 4.2774C14.5523 4.21175 14.5523 4.21175 14.6679 4.14478C16.5538 3.05748 18.6524 2.27255 20.7703 1.75468Z" fill="#FFB300"/>
<path d="M81.5754 22.7326C80.5377 22.787 79.6639 23.1817 78.9539 23.9165C78.2712 24.6513 77.7797 25.495 77.4793 26.4475C77.1789 27.3728 77.0288 28.3254 77.0288 29.3051C77.0288 30.2849 77.1653 31.251 77.4384 32.2036C77.7387 33.1561 78.2439 33.9998 78.9539 34.7346C79.6639 35.4422 80.5377 35.8232 81.5754 35.8776H95.0923C96.8126 36.0409 97.7547 36.9799 97.9185 38.6944C97.8912 39.4565 97.6045 40.096 97.0583 40.6131C96.5122 41.103 95.8568 41.3479 95.0923 41.3479H80.1417C78.2303 41.2391 76.6601 40.5179 75.4313 39.1843C74.2025 37.8235 73.315 36.2859 72.7689 34.5713C72.2501 32.8567 71.9906 31.1013 71.9906 29.3051C71.9906 27.9716 72.1408 26.6516 72.4412 25.3453C72.7416 24.039 73.2058 22.8007 73.8339 21.6304C74.4892 20.4329 75.3494 19.4123 76.4144 18.5687C77.5066 17.725 78.7491 17.2895 80.1417 17.2623H95.0923C96.8126 17.4256 97.7547 18.3645 97.9185 20.0791C97.9185 20.8411 97.6318 21.4807 97.0583 21.9978C96.5122 22.4877 95.8568 22.7326 95.0923 22.7326H81.5754Z" fill="#FFB300"/>
<path d="M110.903 35.0204C110.903 34.2583 111.162 33.6188 111.681 33.1017C112.227 32.5574 112.883 32.2852 113.647 32.2852H119.914L118.849 29.2643C118.412 28.1485 117.975 27.1007 117.538 26.1209C117.129 25.114 116.651 24.2022 116.105 23.3858C115.613 22.5693 115.054 22.1339 114.426 22.0794C113.77 22.1339 113.183 22.5693 112.664 23.3858C112.145 24.2022 111.668 25.114 111.231 26.1209C110.821 27.1007 110.398 28.1485 109.961 29.2643L106.07 39.8783C105.797 40.4498 105.442 40.9261 105.005 41.3071C104.595 41.6609 103.967 41.8378 103.12 41.8378C102.329 41.8378 101.673 41.5657 101.154 41.0213C100.663 40.477 100.444 39.8239 100.499 39.0618C100.526 38.708 100.608 38.3815 100.745 38.0821L105.25 26.4883C106.507 23.4402 107.763 20.9772 109.019 19.0994C110.248 17.2487 112.05 16.3098 114.426 16.2826C116.774 16.3098 118.562 17.2487 119.791 19.0994C121.047 20.9228 122.304 23.3858 123.56 26.4883L128.065 38.0821C128.202 38.3815 128.284 38.708 128.311 39.0618C128.366 39.8239 128.134 40.477 127.615 41.0213C127.123 41.5657 126.481 41.8378 125.69 41.8378C124.788 41.8378 124.119 41.6609 123.683 41.3071C123.273 40.9261 122.932 40.4498 122.659 39.8783L121.88 37.7555H113.647C112.883 37.7555 112.241 37.4833 111.722 36.939C111.176 36.4219 110.903 35.7824 110.903 35.0204Z" fill="#FFB300"/>
<path d="M159.728 30.5706C160.246 31.6593 160.506 32.7615 160.506 33.8773C160.506 34.9659 160.233 36.0545 159.687 37.1432C159.141 38.2046 158.253 39.1571 157.024 40.0008C155.795 40.8172 154.225 41.2255 152.314 41.2255H152.068C151.904 41.2527 151.74 41.2663 151.577 41.2663H135.11C134.373 41.2391 133.745 40.9805 133.226 40.4906C132.735 39.9736 132.475 39.3476 132.448 38.6128V19.9158C132.475 19.181 132.735 18.5687 133.226 18.0788C133.745 17.5617 134.373 17.2895 135.11 17.2623H149.201C149.365 17.2623 149.528 17.2759 149.692 17.3031H149.938C151.85 17.3576 153.42 17.793 154.649 18.6095C155.877 19.4259 156.765 20.3649 157.311 21.4263C157.857 22.4605 158.13 23.5083 158.13 24.5697C158.13 25.6583 157.871 26.7197 157.352 27.7539C157.325 27.8083 157.297 27.8491 157.27 27.8763C158.39 28.6656 159.209 29.5637 159.728 30.5706ZM152.56 35.796C153.078 35.8232 153.502 35.728 153.829 35.5102C154.184 35.2925 154.444 35.0476 154.608 34.7754C154.771 34.476 154.853 34.1767 154.853 33.8773C154.853 33.6868 154.771 33.4283 154.608 33.1017C154.444 32.7479 154.184 32.4621 153.829 32.2444C153.502 32.0267 153.078 31.9042 152.56 31.877H137.978V34.6938C137.978 35.4286 138.36 35.796 139.125 35.796H152.56ZM151.495 26.0393C151.822 25.8488 152.068 25.6311 152.232 25.3861C152.396 25.114 152.478 24.8418 152.478 24.5697C152.478 24.2975 152.396 24.039 152.232 23.794C152.068 23.5219 151.809 23.2905 151.454 23.1C151.126 22.8823 150.703 22.7598 150.184 22.7326H139.125C138.36 22.7326 137.978 23.1 137.978 23.8348V26.4067H150.184C150.703 26.3795 151.14 26.257 151.495 26.0393Z" fill="#FFB300"/>
<path d="M165.011 19.9975C165.011 19.2354 165.271 18.5959 165.79 18.0788C166.336 17.5345 166.991 17.2623 167.756 17.2623H183.566C183.73 17.2623 183.894 17.2759 184.058 17.3031H184.304C186.215 17.3576 187.785 17.793 189.014 18.6095C190.243 19.4259 191.13 20.3649 191.677 21.4263C192.223 22.4605 192.496 23.5083 192.496 24.5697C192.496 25.6583 192.223 26.7333 191.677 27.7947C191.158 28.8289 190.27 29.7542 189.014 30.5706C187.785 31.3871 186.215 31.8225 184.304 31.877H172.671C172.152 31.9042 171.715 32.0267 171.36 32.2444C171.033 32.4621 170.787 32.7479 170.623 33.1017C170.459 33.4283 170.377 33.6868 170.377 33.8773V34.7346C170.377 35.0884 170.459 35.3605 170.623 35.5511C170.814 35.7416 171.169 35.8232 171.688 35.796H189.547C190.311 35.796 190.953 36.0681 191.472 36.6125C192.018 37.1295 192.291 37.7691 192.291 38.5311C192.291 39.2932 192.018 39.9463 191.472 40.4906C190.953 41.0077 190.311 41.2663 189.547 41.2663H169.476C167.947 41.2663 166.773 40.8989 165.954 40.1641C165.162 39.402 164.752 38.327 164.725 36.939V33.8773C164.725 32.7615 164.984 31.6729 165.503 30.6115C166.049 29.5229 166.937 28.5703 168.165 27.7539C169.422 26.9102 171.005 26.4611 172.917 26.4067H184.55C185.068 26.3795 185.492 26.2706 185.819 26.0801C186.174 25.8624 186.434 25.6311 186.598 25.3861C186.761 25.114 186.843 24.8418 186.843 24.5697C186.843 24.2975 186.761 24.039 186.598 23.794C186.434 23.5219 186.174 23.2905 185.819 23.1C185.492 22.8823 185.068 22.7598 184.55 22.7326H167.756C166.991 22.7326 166.35 22.4605 165.831 21.9162C165.285 21.3991 165.011 20.7595 165.011 19.9975Z" fill="#FFB300"/>
<path d="M200.688 27.5089C200.224 26.9102 200.033 26.2434 200.114 25.5086C200.224 24.7738 200.579 24.1614 201.179 23.6715L209.249 17.4256C209.849 16.8813 210.532 16.6092 211.297 16.6092C212.034 16.6364 212.662 16.9085 213.181 17.4256C213.7 17.9155 213.973 18.5278 214 19.2627V39.266C213.836 40.8989 212.935 41.7834 211.297 41.9195C210.532 41.9195 209.863 41.6745 209.29 41.1846C208.743 40.6675 208.47 40.028 208.47 39.266V24.9779L204.538 27.9988C203.937 28.4615 203.268 28.6383 202.531 28.5295C201.767 28.4478 201.152 28.1077 200.688 27.5089Z" fill="#FFB300"/>
</svg>
