<svg width="210" height="105" viewBox="0 0 210 105" fill="none" xmlns="http://www.w3.org/2000/svg">
	<path d="M100.606 37.6291C100.778 37.6283 100.949 37.6275 101.125 37.6266C101.689 37.6243 102.254 37.6232 102.818 37.6223C103.212 37.6213 103.607 37.6204 104.001 37.6195C104.828 37.6178 105.654 37.6168 106.481 37.6163C107.536 37.6154 108.59 37.6115 109.644 37.6069C110.459 37.6039 111.274 37.603 112.089 37.6028C112.478 37.6023 112.866 37.601 113.255 37.5989C119.065 37.5692 119.065 37.5692 121.26 39.7173C122.104 40.6057 122.873 41.5609 123.64 42.5161C124.191 43.1902 124.761 43.8458 125.332 44.503C125.838 45.0859 126.34 45.6716 126.835 46.2633C127.053 46.5235 127.273 46.7824 127.493 47.0412C127.76 47.3584 128.022 47.6791 128.28 48.0037C128.399 48.1479 128.518 48.2921 128.64 48.4407C128.74 48.5663 128.84 48.6919 128.943 48.8213C130.321 49.9152 132.219 49.7048 133.878 49.7057C136.082 49.7395 137.86 50.2425 139.518 51.739C140.592 52.8778 141.302 54.3578 141.32 55.9346C141.322 56.0924 141.325 56.2502 141.327 56.4128C141.328 56.6673 141.328 56.6673 141.33 56.9269C141.332 57.1026 141.333 57.2782 141.334 57.4592C141.336 57.831 141.338 58.2027 141.339 58.5745C141.342 59.1408 141.349 59.707 141.356 60.2733C141.358 60.635 141.359 60.9967 141.361 61.3584C141.363 61.5268 141.366 61.6951 141.369 61.8686C141.366 63.0664 141.171 63.9297 140.359 64.8554C140.268 64.9276 140.176 64.9998 140.082 65.0742C139.991 65.1489 139.899 65.2236 139.805 65.3006C139.313 65.6407 138.995 65.8229 138.388 65.8229C138.382 65.6566 138.376 65.4903 138.37 65.3189C138.243 62.4088 137.51 59.942 135.324 57.8906C133.07 55.9604 130.439 55.5764 127.582 55.7861C125.489 56.1624 123.591 57.1896 122.259 58.8619C120.707 61.131 120.337 63.1657 120.162 65.9848C110.261 65.9848 100.361 65.9848 90.1606 65.9848C90.1073 65.13 90.0541 64.2753 89.9993 63.3946C89.5168 60.9252 88.3843 58.7196 86.2894 57.2431C83.9324 55.8354 81.566 55.248 78.8697 55.8873C76.5346 56.4952 74.6529 57.8329 73.3106 59.8617C72.514 61.3325 72.0937 62.9065 72.0045 64.5683C71.9975 64.6889 71.9906 64.8095 71.9834 64.9338C71.9664 65.2301 71.9501 65.5265 71.9339 65.8229C70.7222 65.6116 70.0908 64.9946 69.3853 64.0264C69.0549 63.5004 69.0085 63.0569 68.9995 62.4506C68.9969 62.2916 68.9943 62.1326 68.9916 61.9688C68.9844 61.2377 68.9778 60.5066 68.9741 59.7755C68.9715 59.3916 68.9671 59.0078 68.9609 58.6239C68.952 58.0677 68.9485 57.5116 68.9462 56.9553C68.9425 56.7863 68.9388 56.6173 68.9351 56.4431C68.9403 54.574 69.6595 52.9116 70.9661 51.5771C72.7429 49.9921 74.7832 49.7005 77.0879 49.7205C77.3129 49.7198 77.5378 49.7186 77.7628 49.7171C78.4678 49.713 79.1728 49.7139 79.8778 49.7155C80.6985 49.7174 81.519 49.7171 82.3397 49.7116C82.6646 49.7105 82.9895 49.7132 83.3144 49.716C84.6822 49.7084 85.7203 49.543 86.8237 48.7031C86.9135 48.6065 87.0034 48.5098 87.0959 48.4103C87.2017 48.2968 87.3076 48.1833 87.4166 48.0663C87.8845 47.5265 88.335 46.9743 88.7813 46.4165C89.2535 45.8307 89.7475 45.2645 90.2412 44.6971C90.8435 44.0039 91.4388 43.3076 92.0155 42.5926C92.2572 42.2957 92.4992 41.9989 92.7413 41.7022C92.8203 41.6045 92.8993 41.5067 92.9807 41.4059C94.9667 38.9606 94.9667 38.9606 96.4511 38.3027C96.5655 38.2507 96.6799 38.1988 96.7977 38.1452C98.0372 37.6329 99.2898 37.6306 100.606 37.6291ZM94.7657 43.6252C94.2936 44.211 93.7996 44.7772 93.3059 45.3446C92.564 46.1983 91.8399 47.0622 91.1302 47.943C90.7237 48.4397 90.301 48.9203 89.8726 49.398C89.6595 49.604 89.6595 49.604 89.6767 49.7964C95.2124 49.7964 100.748 49.7964 106.452 49.7964C106.452 46.698 106.452 43.5995 106.452 40.4072C105.237 40.3938 104.023 40.3805 102.772 40.3667C102.392 40.3608 102.013 40.3549 101.622 40.3488C101.315 40.347 101.009 40.3453 100.702 40.3439C100.548 40.3406 100.393 40.3373 100.234 40.3339C97.5652 40.3325 96.3411 41.6564 94.7657 43.6252ZM109.194 40.4072C109.194 43.5056 109.194 46.6041 109.194 49.7964C114.729 49.7964 120.265 49.7964 125.969 49.7964C125.356 48.977 124.751 48.1878 124.083 47.4188C123.913 47.2209 123.743 47.023 123.572 46.825C123.488 46.7264 123.403 46.6278 123.315 46.5263C122.933 46.081 122.556 45.6319 122.178 45.1827C121.541 44.4262 120.903 43.6702 120.263 42.9164C120.184 42.8232 120.105 42.73 120.024 42.634C119.079 41.5232 118.269 40.653 116.775 40.4072C116.512 40.3939 116.25 40.3881 115.987 40.3888C115.833 40.3888 115.68 40.3888 115.521 40.3889C115.282 40.3901 115.282 40.3901 115.038 40.3914C114.889 40.3915 114.741 40.3917 114.588 40.3919C114.037 40.3927 113.485 40.395 112.934 40.3971C111.7 40.4004 110.465 40.4037 109.194 40.4072Z" fill="#FFB300" />
	<path d="M98.4069 14.3945C98.6179 14.5907 98.8261 14.7898 99.0319 14.9915C101.29 16.8272 103.795 17.2653 106.613 17.096C108.764 16.8055 110.732 15.714 112.258 14.1821C113.61 14.068 114.88 14.7741 115.918 15.5783C117.128 16.6955 117.964 18.2708 118.116 19.9134C118.142 20.5433 118.147 21.1703 118.146 21.8007C118.15 22.0171 118.155 22.2334 118.16 22.4498C118.162 23.6641 118.114 24.5989 117.259 25.5139C116.513 26.0793 115.845 26.1813 114.929 26.1842C114.75 26.1851 114.572 26.186 114.388 26.187C114.193 26.1872 113.998 26.1873 113.797 26.1875C113.488 26.1887 113.488 26.1887 113.173 26.19C112.608 26.1921 112.044 26.1931 111.479 26.1938C111.126 26.1943 110.773 26.195 110.42 26.1957C109.315 26.1979 108.21 26.1995 107.105 26.2001C105.83 26.2008 104.556 26.2037 103.282 26.2084C102.296 26.2119 101.31 26.2135 100.324 26.2137C99.7352 26.2139 99.1468 26.2148 98.5583 26.2177C97.9015 26.2209 97.2448 26.2202 96.588 26.2191C96.394 26.2206 96.2 26.2221 96.0001 26.2237C94.746 26.2174 93.9074 26.1288 92.9329 25.2812C92.1114 24.3154 92.1973 23.4274 92.1976 22.1929C92.1969 21.8663 92.1911 21.5401 92.185 21.2136C92.1785 19.039 92.7355 17.4282 94.193 15.8009C95.1782 14.9036 97.1276 13.4264 98.4069 14.3945Z" fill="#FFB300" />
	<path d="M122.904 25.8377C123.205 26.0969 123.205 26.0969 123.529 26.4245C125.358 28.1035 127.766 28.8703 130.219 28.8078C132.627 28.5776 134.565 27.6888 136.229 25.9445C136.614 25.6758 136.614 25.6758 137.101 25.6948C138.56 26.1285 139.786 27.0519 140.578 28.3627C141.291 29.7559 141.33 30.8966 141.342 32.4547C141.347 32.6598 141.352 32.8649 141.356 33.0763C141.369 34.956 141.369 34.956 140.647 35.7126C139.841 36.3358 139.255 36.5412 138.254 36.5447C138.098 36.5456 137.942 36.5466 137.78 36.5475C137.61 36.5477 137.439 36.5479 137.263 36.5481C136.993 36.5493 136.993 36.5493 136.716 36.5505C136.119 36.5529 135.521 36.554 134.923 36.5549C134.508 36.5558 134.092 36.5567 133.677 36.5577C132.916 36.5591 132.156 36.5602 131.396 36.5606C130.279 36.5614 129.163 36.5642 128.046 36.5689C127.077 36.5728 126.108 36.5741 125.139 36.5744C124.728 36.5748 124.316 36.5761 123.905 36.5783C123.329 36.581 122.753 36.5807 122.177 36.5797C121.923 36.5819 121.923 36.5819 121.664 36.5842C120.638 36.5784 119.576 36.5449 118.782 35.8013C117.9 34.7699 118.025 33.8756 118.015 32.5659C118.01 32.3661 118.005 32.1663 118 31.9605C117.987 29.9766 118.397 28.5967 119.779 27.1593C120.58 26.4265 121.776 25.4253 122.904 25.8377Z" fill="#FFB300" />
	<path d="M73.8695 25.8377C74.1707 26.0969 74.1707 26.0969 74.4945 26.4245C76.3236 28.1035 78.7317 28.8703 81.1846 28.8078C83.5926 28.5776 85.5304 27.6888 87.1948 25.9445C87.5798 25.6758 87.5798 25.6758 88.0668 25.6948C89.5259 26.1285 90.7521 27.0519 91.5435 28.3627C92.257 29.7559 92.2961 30.8966 92.3078 32.4547C92.3125 32.6598 92.3172 32.8649 92.322 33.0763C92.3348 34.956 92.3348 34.956 91.6122 35.7126C90.8066 36.3358 90.2202 36.5412 89.22 36.5447C89.0636 36.5456 88.9071 36.5466 88.7459 36.5475C88.5753 36.5477 88.4047 36.5479 88.2289 36.5481C87.9581 36.5493 87.9581 36.5493 87.6819 36.5505C87.0842 36.5529 86.4864 36.554 85.8887 36.5549C85.4732 36.5558 85.0577 36.5567 84.6422 36.5577C83.882 36.5591 83.1218 36.5602 82.3616 36.5606C81.245 36.5614 80.1283 36.5642 79.0116 36.5689C78.0426 36.5728 77.0736 36.5741 76.1045 36.5744C75.6932 36.5748 75.2819 36.5761 74.8706 36.5783C74.2945 36.581 73.7186 36.5807 73.1426 36.5797C72.8886 36.5819 72.8886 36.5819 72.6295 36.5842C71.6038 36.5784 70.5415 36.5449 69.7473 35.8013C68.8661 34.7699 68.9901 33.8756 68.9802 32.5659C68.9755 32.3661 68.9708 32.1663 68.966 31.9605C68.9524 29.9766 69.3622 28.5967 70.7444 27.1593C71.5457 26.4265 72.7418 25.4253 73.8695 25.8377Z" fill="#FFB300" />
	<path d="M109.395 1.26173C110.782 2.31417 111.656 3.48021 112.258 5.11658C112.298 5.22447 112.338 5.33236 112.379 5.44351C112.936 7.27707 112.582 9.23461 111.835 10.9545C110.842 12.8006 109.183 14.0561 107.228 14.7075C105.091 15.2823 103.092 14.903 101.167 13.8671C99.3316 12.6982 98.2985 11.0278 97.8127 8.93792C97.4559 6.82414 97.937 4.83426 99.093 3.04624C101.481 -0.222438 106.043 -0.930464 109.395 1.26173Z" fill="#FFB300" />
	<path d="M133.408 14.0404C134.974 15.2219 136.005 16.6115 136.391 18.57C136.658 20.5791 136.208 22.4199 135.001 24.0569C133.943 25.3339 132.611 26.2025 130.969 26.4852C128.975 26.655 127.063 26.4787 125.465 25.1516C123.819 23.6 122.928 22.0749 122.854 19.7873C122.898 17.889 123.6 16.2389 124.9 14.8599C127.205 12.7086 130.742 12.2929 133.408 14.0404Z" fill="#FFB300" />
	<path d="M83.9279 13.7432C85.6638 14.8365 86.7411 16.2545 87.3177 18.2494C87.6314 20.2016 87.3189 22.0211 86.2352 23.6927C85.1574 25.1553 83.7398 26.1744 81.9344 26.4852C80.0104 26.6491 78.2445 26.4949 76.6418 25.3115C76.4121 25.1144 76.1868 24.912 75.9664 24.7045C75.812 24.5596 75.812 24.5596 75.6545 24.4117C74.3352 23.0421 73.7994 21.2133 73.8248 19.337C74.0127 17.4025 74.9041 15.7633 76.2915 14.4356C78.3883 12.7745 81.5788 12.4551 83.9279 13.7432Z" fill="#FFB300" />
	<path d="M81.0271 57.9817C81.1608 57.9829 81.2946 57.9841 81.4324 57.9854C83.3816 58.0378 84.6489 58.7886 86.0777 60.0558C87.4134 61.5775 87.8478 63.2298 87.7972 65.2462C87.5873 67.4049 86.6742 68.8459 85.0702 70.2323C84.4505 70.6811 83.7907 70.9419 83.0635 71.1651C82.968 71.1959 82.8726 71.2268 82.7743 71.2586C80.9573 71.6072 78.9533 71.4223 77.3639 70.4486C77.0422 70.2164 76.7454 69.9732 76.4503 69.7081C76.3072 69.5812 76.1642 69.4544 76.0168 69.3236C74.646 67.7619 74.222 66.0941 74.2986 64.0365C74.4445 62.3277 75.1176 60.9197 76.289 59.6713C77.7102 58.5205 79.2089 57.9581 81.0271 57.9817Z" fill="#FFB300" />
	<path d="M133.509 59.2767C134.825 60.2937 135.716 61.7391 135.969 63.3946C136.135 65.3949 135.966 67.3162 134.639 68.9189C133.633 69.9983 132.713 70.7288 131.291 71.165C131.196 71.1959 131.101 71.2268 131.002 71.2586C129.178 71.6085 127.222 71.4042 125.609 70.4714C124.088 69.4112 123.085 68.0514 122.649 66.2453C122.334 64.2891 122.632 62.3847 123.64 60.673C125.968 57.4795 130.397 57.2213 133.509 59.2767Z" fill="#FFB300" />
	<path d="M113.71 2.36456C119.229 3.7707 124.362 6.38861 128.549 10.2969C128.603 10.4037 128.656 10.5105 128.711 10.6206C128.301 10.7616 127.892 10.8993 127.481 11.0354C127.366 11.0754 127.251 11.1154 127.132 11.1565C126.42 11.3894 125.9 11.5029 125.162 11.2682C124.788 11.0146 124.788 11.0146 124.426 10.6914C121.982 8.64744 118.776 6.92763 115.725 6.02018C115.27 5.86781 114.917 5.73526 114.667 5.3087C114.544 4.9779 114.447 4.64792 114.355 4.30716C114.187 3.92533 114.012 3.54819 113.834 3.17082C113.71 2.85021 113.71 2.85021 113.71 2.36456Z" fill="#FFB300" />
	<path d="M96.4511 2.36456C96.6618 2.99875 96.5051 3.19899 96.2394 3.80128C96.1669 3.9678 96.0943 4.13433 96.0196 4.3059C95.9491 4.46658 95.8786 4.62726 95.806 4.79282C95.761 5.00348 95.761 5.00348 95.7152 5.21839C95.3189 5.8745 94.6166 6.00726 93.9208 6.25988C90.8198 7.46338 87.6273 8.978 85.1471 11.2523C84.5448 11.5983 83.9141 11.28 83.2815 11.1107C83.0831 11.0525 82.8848 10.9943 82.6804 10.9343C82.4795 10.8756 82.2787 10.817 82.0717 10.7566C81.92 10.7117 81.7682 10.6668 81.6118 10.6206C82.2167 9.83506 82.8697 9.24398 83.6582 8.64767C83.7777 8.55685 83.8971 8.46604 84.0201 8.37247C85.3118 7.40708 86.6689 6.56954 88.0637 5.76412C88.2137 5.67565 88.2137 5.67565 88.3668 5.5854C90.8653 4.12019 93.6455 3.06243 96.4511 2.36456Z" fill="#FFB300" />
	<path d="M3.8945 103.181C3.8945 104.394 3.26345 105 2.00134 105C1.38832 105 0.901505 104.846 0.540903 104.539C0.180301 104.231 0 103.779 0 103.181V92.4326C0 89.9354 0.504843 88.153 1.51453 87.0853C2.52421 86.0177 4.10185 85.4839 6.24743 85.4839C8.4471 85.4839 10.0698 86.0267 11.1156 87.1125C12.1613 88.1982 12.6842 89.9716 12.6842 92.4326V103.181C12.6842 104.394 12.0531 105 10.791 105C10.178 105 9.69118 104.846 9.33058 104.539C8.96998 104.231 8.78967 103.779 8.78967 103.181V96.6398C8.4471 96.9475 8.06847 97.2098 7.65378 97.427C7.25712 97.6441 6.78833 97.7527 6.24743 97.7527C5.45411 97.7527 4.85911 97.8975 4.46245 98.187C4.08382 98.4765 3.8945 98.9923 3.8945 99.7342V103.181ZM3.73223 95.2284C4.02071 94.9388 4.36329 94.7126 4.75995 94.5498C5.17464 94.3869 5.67047 94.3055 6.24743 94.3055C6.93258 94.3055 7.45545 94.2512 7.81605 94.1426C8.19468 94.0341 8.45612 93.826 8.60036 93.5183C8.7446 93.2107 8.81672 92.7583 8.81672 92.1612C8.81672 90.8221 8.6274 89.9083 8.24877 89.4197C7.87014 88.913 7.19401 88.6597 6.22039 88.6597C5.31888 88.6597 4.69684 88.9221 4.35427 89.4468C4.02973 89.9535 3.86746 90.8945 3.86746 92.2697C3.86746 92.9755 3.85844 93.5726 3.84041 94.0612C3.82238 94.5498 3.78632 94.9388 3.73223 95.2284Z" fill="#FFB300" />
	<path d="M35.6278 105C34.8525 105 34.1854 104.774 33.6265 104.321C33.0675 103.869 32.6618 103.1 32.4094 102.014L31.3276 97.5627C31.1113 98.377 30.8588 99.1732 30.5704 99.9513C30.2819 100.711 30.0024 101.39 29.732 101.987C29.2812 103.055 28.7854 103.824 28.2445 104.294C27.7216 104.765 27.1176 105 26.4324 105C25.6571 105 24.9991 104.738 24.4581 104.213C23.9353 103.688 23.5476 102.955 23.2952 102.014L19.7252 88.3882C19.4368 87.4654 19.4818 86.7506 19.8605 86.2439C20.2571 85.7372 20.78 85.4839 21.4291 85.4839C22.0241 85.4839 22.4839 85.6829 22.8084 86.081C23.151 86.4791 23.4394 87.1577 23.6738 88.1168L26.8111 100.983L28.6772 95.0655C29.0378 93.9436 29.2632 93.0569 29.3533 92.4054C29.4615 91.7359 29.5156 91.2202 29.5156 90.8583C29.5156 90.2792 29.4525 89.7906 29.3263 89.3925C29.2181 88.9944 29.1189 88.6235 29.0288 88.2797C28.8124 87.3387 28.8755 86.6872 29.2181 86.3253C29.5787 85.9634 30.0385 85.7825 30.5974 85.7825C31.1744 85.7825 31.6431 85.9634 32.0037 86.3253C32.3824 86.6692 32.6618 87.2663 32.8421 88.1168L35.7901 100.956C36.6555 98.4222 37.2685 96.3774 37.6291 94.8212C38.0078 93.265 38.1971 92.0797 38.1971 91.2654C38.1971 90.433 38.161 89.7906 38.0889 89.3382C38.0168 88.8859 37.9356 88.5149 37.8455 88.2254C37.7734 87.9177 37.7373 87.6101 37.7373 87.3025C37.7373 86.8501 37.8996 86.4339 38.2241 86.0539C38.5667 85.6739 39.1256 85.4839 39.9009 85.4839C40.4959 85.4839 40.9557 85.701 41.2802 86.1353C41.6048 86.5696 41.8211 87.1034 41.9293 87.7368C42.0555 88.3701 42.1186 88.9854 42.1186 89.5825C42.1186 90.433 42.0195 91.4102 41.8211 92.514C41.6228 93.6179 41.3614 94.7579 41.0368 95.9341C40.7303 97.0922 40.3877 98.2051 40.0091 99.2727C39.6305 100.34 39.2518 101.263 38.8732 102.041C38.3684 103.109 37.8635 103.869 37.3587 104.321C36.8538 104.774 36.2769 105 35.6278 105Z" fill="#FFB300" />
	<path d="M53.2496 103.181C53.2496 104.394 52.6186 105 51.3565 105C50.7435 105 50.2566 104.846 49.896 104.539C49.5354 104.231 49.3551 103.779 49.3551 103.181V92.4326C49.3551 89.9354 49.86 88.153 50.8697 87.0853C51.8794 86.0177 53.457 85.4839 55.6026 85.4839C57.8022 85.4839 59.425 86.0267 60.4707 87.1125C61.5164 88.1982 62.0393 89.9716 62.0393 92.4326V103.181C62.0393 104.394 61.4083 105 60.1462 105C59.5331 105 59.0463 104.846 58.6857 104.539C58.3251 104.231 58.1448 103.779 58.1448 103.181V96.6398C57.8022 96.9475 57.4236 97.2098 57.0089 97.427C56.6123 97.6441 56.1435 97.7527 55.6026 97.7527C54.8092 97.7527 54.2143 97.8975 53.8176 98.187C53.439 98.4765 53.2496 98.9923 53.2496 99.7342V103.181ZM53.0874 95.2284C53.3759 94.9388 53.7184 94.7126 54.1151 94.5498C54.5298 94.3869 55.0256 94.3055 55.6026 94.3055C56.2877 94.3055 56.8106 94.2512 57.1712 94.1426C57.5498 94.0341 57.8113 93.826 57.9555 93.5183C58.0997 93.2107 58.1719 92.7583 58.1719 92.1612C58.1719 90.8221 57.9825 89.9083 57.6039 89.4197C57.2253 88.913 56.5492 88.6597 55.5755 88.6597C54.674 88.6597 54.052 88.9221 53.7094 89.4468C53.3849 89.9535 53.2226 90.8945 53.2226 92.2697C53.2226 92.9755 53.2136 93.5726 53.1956 94.0612C53.1775 94.5498 53.1415 94.9388 53.0874 95.2284Z" fill="#FFB300" />
	<path d="M74.3485 103.181C74.3485 104.394 73.7174 105 72.4553 105C71.8423 105 71.3555 104.846 70.9949 104.539C70.6343 104.231 70.454 103.779 70.454 103.181V92.4326C70.454 89.9354 70.9588 88.153 71.9685 87.0853C72.9782 86.0177 74.5558 85.4839 76.7014 85.4839C78.9011 85.4839 80.5238 86.0267 81.5695 87.1125C82.6153 88.1982 83.1382 89.9716 83.1382 92.4326V103.181C83.1382 104.394 82.5071 105 81.245 105C80.632 105 80.1452 104.846 79.7846 104.539C79.424 104.231 79.2437 103.779 79.2437 103.181V96.6398C78.9011 96.9475 78.5225 97.2098 78.1078 97.427C77.7111 97.6441 77.2423 97.7527 76.7014 97.7527C75.9081 97.7527 75.3131 97.8975 74.9164 98.187C74.5378 98.4765 74.3485 98.9923 74.3485 99.7342V103.181ZM74.1862 95.2284C74.4747 94.9388 74.8173 94.7126 75.2139 94.5498C75.6286 94.3869 76.1245 94.3055 76.7014 94.3055C77.3866 94.3055 77.9094 94.2512 78.27 94.1426C78.6487 94.0341 78.9101 93.826 79.0543 93.5183C79.1986 93.2107 79.2707 92.7583 79.2707 92.1612C79.2707 90.8221 79.0814 89.9083 78.7028 89.4197C78.3241 88.913 77.648 88.6597 76.6744 88.6597C75.7729 88.6597 75.1508 88.9221 74.8083 89.4468C74.4837 89.9535 74.3214 90.8945 74.3214 92.2697C74.3214 92.9755 74.3124 93.5726 74.2944 94.0612C74.2764 94.5498 74.2403 94.9388 74.1862 95.2284Z" fill="#FFB300" />
	<path d="M92.8233 104.783C92.4807 104.783 92.1832 104.656 91.9308 104.403C91.6964 104.131 91.5792 103.797 91.5792 103.399V91.2926C91.5792 89.4106 92.0841 87.972 93.0938 86.9768C94.1215 85.9815 95.6 85.4839 97.5292 85.4839C102.578 85.4839 105.102 88.7682 105.102 95.3369C105.102 98.5399 104.471 100.919 103.209 102.476C101.947 104.014 100.008 104.783 97.3939 104.783H92.8233ZM95.4737 101.58H97.3939C98.7282 101.58 99.6928 101.064 100.288 100.033C100.901 98.9832 101.207 97.3003 101.207 94.9841C101.207 92.7764 100.928 91.2111 100.369 90.2883C99.828 89.3473 98.8995 88.8768 97.5833 88.8768C96.1769 88.8768 95.4737 89.3925 95.4737 90.424V101.58Z" fill="#FFB300" />
	<path d="M130.285 105C128.951 105 128.284 104.394 128.284 103.181V97.7798L122.658 88.5239C122.334 87.963 122.207 87.4563 122.28 87.0039C122.37 86.5515 122.577 86.1896 122.902 85.9182C123.244 85.6286 123.632 85.4839 124.065 85.4839C124.66 85.4839 125.128 85.6648 125.471 86.0267C125.831 86.3887 126.237 87.0039 126.688 87.8725L130.366 94.5226C131.087 93.8531 131.655 93.2921 132.07 92.8397C132.485 92.3693 132.782 91.9259 132.962 91.5097C133.143 91.0935 133.233 90.6321 133.233 90.1254C133.233 89.6187 133.179 89.0578 133.071 88.4425C132.962 87.8273 132.908 87.3749 132.908 87.0853C132.908 86.6329 133.098 86.2529 133.476 85.9453C133.855 85.6377 134.315 85.4839 134.856 85.4839C135.505 85.4839 136 85.8096 136.343 86.4611C136.704 87.0944 136.884 88.0263 136.884 89.2568C136.884 90.2702 136.749 91.2202 136.478 92.1069C136.226 92.9936 135.757 93.8893 135.072 94.7941C134.405 95.6989 133.44 96.6851 132.178 97.7527V103.181C132.178 103.797 132.025 104.258 131.718 104.566C131.43 104.855 130.952 105 130.285 105Z" fill="#FFB300" />
	<path d="M147.757 103.181C147.757 104.394 147.126 105 145.864 105C145.251 105 144.764 104.846 144.403 104.539C144.043 104.231 143.862 103.779 143.862 103.181V92.4326C143.862 89.9354 144.367 88.153 145.377 87.0853C146.386 86.0177 147.964 85.4839 150.11 85.4839C152.309 85.4839 153.932 86.0267 154.978 87.1125C156.024 88.1982 156.546 89.9716 156.546 92.4326V103.181C156.546 104.394 155.915 105 154.653 105C154.04 105 153.553 104.846 153.193 104.539C152.832 104.231 152.652 103.779 152.652 103.181V96.6398C152.309 96.9475 151.931 97.2098 151.516 97.427C151.119 97.6441 150.651 97.7527 150.11 97.7527C149.316 97.7527 148.721 97.8975 148.325 98.187C147.946 98.4765 147.757 98.9923 147.757 99.7342V103.181ZM147.594 95.2284C147.883 94.9388 148.226 94.7126 148.622 94.5498C149.037 94.3869 149.533 94.3055 150.11 94.3055C150.795 94.3055 151.318 94.2512 151.678 94.1426C152.057 94.0341 152.318 93.826 152.463 93.5183C152.607 93.2107 152.679 92.7583 152.679 92.1612C152.679 90.8221 152.49 89.9083 152.111 89.4197C151.732 88.913 151.056 88.6597 150.083 88.6597C149.181 88.6597 148.559 88.9221 148.217 89.4468C147.892 89.9535 147.73 90.8945 147.73 92.2697C147.73 92.9755 147.721 93.5726 147.703 94.0612C147.685 94.5498 147.649 94.9388 147.594 95.2284Z" fill="#FFB300" />
	<path d="M179.49 105C178.715 105 178.048 104.774 177.489 104.321C176.93 103.869 176.524 103.1 176.272 102.014L175.19 97.5627C174.974 98.377 174.721 99.1732 174.433 99.9513C174.144 100.711 173.865 101.39 173.594 101.987C173.143 103.055 172.648 103.824 172.107 104.294C171.584 104.765 170.98 105 170.295 105C169.519 105 168.861 104.738 168.32 104.213C167.798 103.688 167.41 102.955 167.157 102.014L163.588 88.3882C163.299 87.4654 163.344 86.7506 163.723 86.2439C164.119 85.7372 164.642 85.4839 165.291 85.4839C165.886 85.4839 166.346 85.6829 166.671 86.081C167.013 86.4791 167.302 87.1577 167.536 88.1168L170.673 100.983L172.539 95.0655C172.9 93.9436 173.125 93.0569 173.216 92.4054C173.324 91.7359 173.378 91.2202 173.378 90.8583C173.378 90.2792 173.315 89.7906 173.189 89.3925C173.08 88.9944 172.981 88.6235 172.891 88.2797C172.675 87.3387 172.738 86.6872 173.08 86.3253C173.441 85.9634 173.901 85.7825 174.46 85.7825C175.037 85.7825 175.505 85.9634 175.866 86.3253C176.245 86.6692 176.524 87.2663 176.704 88.1168L179.652 100.956C180.518 98.4222 181.131 96.3774 181.491 94.8212C181.87 93.265 182.059 92.0797 182.059 91.2654C182.059 90.433 182.023 89.7906 181.951 89.3382C181.879 88.8859 181.798 88.5149 181.708 88.2254C181.636 87.9177 181.6 87.6101 181.6 87.3025C181.6 86.8501 181.762 86.4339 182.086 86.0539C182.429 85.6739 182.988 85.4839 183.763 85.4839C184.358 85.4839 184.818 85.701 185.142 86.1353C185.467 86.5696 185.683 87.1034 185.792 87.7368C185.918 88.3701 185.981 88.9854 185.981 89.5825C185.981 90.433 185.882 91.4102 185.683 92.514C185.485 93.6179 185.224 94.7579 184.899 95.9341C184.593 97.0922 184.25 98.2051 183.871 99.2727C183.493 100.34 183.114 101.263 182.735 102.041C182.231 103.109 181.726 103.869 181.221 104.321C180.716 104.774 180.139 105 179.49 105Z" fill="#FFB300" />
	<path d="M195.486 105C194.152 105 193.485 104.394 193.485 103.181V87.3025C193.485 86.6691 193.638 86.2077 193.944 85.9182C194.251 85.6286 194.738 85.4839 195.405 85.4839C196.721 85.4839 197.379 86.0901 197.379 87.3025V103.181C197.379 103.797 197.226 104.258 196.919 104.566C196.631 104.855 196.153 105 195.486 105Z" fill="#FFB300" />
	<path d="M208.107 105C206.773 105 206.105 104.394 206.105 103.181V87.3025C206.105 86.6691 206.259 86.2077 206.565 85.9182C206.872 85.6286 207.359 85.4839 208.026 85.4839C209.342 85.4839 210 86.0901 210 87.3025V103.181C210 103.797 209.847 104.258 209.54 104.566C209.252 104.855 208.774 105 208.107 105Z" fill="#FFB300" />
</svg>
