<svg width="36" height="37" viewBox="0 0 36 37" fill="none" xmlns="http://www.w3.org/2000/svg">
<rect y="0.5" width="36" height="36" rx="18" fill="#FFB300" fill-opacity="0.2"/>
<g clip-path="url(#clip0_19102_3644)">
<path d="M18.5 18.5C21.2614 18.5 23.5 16.2614 23.5 13.5C23.5 10.7386 21.2614 8.5 18.5 8.5C15.7386 8.5 13.5 10.7386 13.5 13.5C13.5 16.2614 15.7386 18.5 18.5 18.5Z" fill="#FFB300"/>
<path d="M18.5 20.1665C14.3598 20.1711 11.0046 23.5263 11 27.6665C11 28.1267 11.3731 28.4998 11.8333 28.4998H25.1666C25.6269 28.4998 26 28.1267 26 27.6665C25.9954 23.5263 22.6402 20.1711 18.5 20.1665Z" fill="#FFB300"/>
</g>
<defs>
<clipPath id="clip0_19102_3644">
<rect width="20" height="20" fill="white" transform="translate(8 8.5)"/>
</clipPath>
</defs>
</svg>
